<svg width="29" height="28" viewBox="0 0 29 28" fill="none" xmlns="http://www.w3.org/2000/svg">
<path d="M1.83398 6.5C1.83398 5.17392 2.36077 3.90215 3.29845 2.96447C4.23613 2.02678 5.5079 1.5 6.83398 1.5H21.834C23.1601 1.5 24.4318 2.02678 25.3695 2.96447C26.3072 3.90215 26.834 5.17392 26.834 6.5V21.5C26.834 22.8261 26.3072 24.0979 25.3695 25.0355C24.4318 25.9732 23.1601 26.5 21.834 26.5H6.83398C5.5079 26.5 4.23613 25.9732 3.29845 25.0355C2.36077 24.0979 1.83398 22.8261 1.83398 21.5V6.5Z" stroke="#1E272F" stroke-width="2.48333" stroke-linecap="round" stroke-linejoin="round"/>
<path d="M9.95923 12.7498C11.6851 12.7498 13.0842 11.3506 13.0842 9.62476C13.0842 7.89887 11.6851 6.49976 9.95923 6.49976C8.23334 6.49976 6.83423 7.89887 6.83423 9.62476C6.83423 11.3506 8.23334 12.7498 9.95923 12.7498Z" stroke="#1E272F" stroke-width="2.48333" stroke-linecap="round" stroke-linejoin="round"/>
<path d="M17.4917 14.7764L6.83423 26.5001H22.0005C23.2825 26.5001 24.512 25.9909 25.4185 25.0844C26.325 24.1778 26.8342 22.9484 26.8342 21.6664V21.5001C26.8342 20.9176 26.6155 20.6939 26.2217 20.2626L21.1842 14.7689C20.9494 14.5128 20.6639 14.3084 20.3457 14.1688C20.0275 14.0293 19.6838 13.9576 19.3363 13.9583C18.9889 13.959 18.6454 14.0321 18.3278 14.1729C18.0102 14.3138 17.7255 14.5193 17.4917 14.7764V14.7764Z" stroke="#1E272F" stroke-width="2.48333" stroke-linecap="round" stroke-linejoin="round"/>
</svg>
