<svg width="180" height="320" viewBox="0 0 180 320" fill="none" xmlns="http://www.w3.org/2000/svg">
<path d="M17.3825 70.2921C16.2772 73.0516 14.8216 76.763 14.1423 78.5918C13.5387 80.4416 12.2943 83.4046 11.5182 85.2872C10.6662 87.1488 9.47649 90.2077 8.75493 92.1862C6.21019 99.4685 0.662608 113.341 -1.24364 117.492C-2.3191 119.857 -3.77462 123.568 -4.36583 125.663C-4.97815 127.834 -5.78783 129.545 -6.09077 129.461C-6.46944 129.356 -6.91651 130.362 -7.02715 131.622C-7.45083 134.571 -10.9356 143.448 -11.693 143.238C-11.9202 143.175 -12.285 141.863 -12.5108 140.348C-12.8073 137.926 -13.7999 119.736 -13.7971 116.832C-13.7783 114.739 -14.881 92.8881 -15.026 90.5078C-15.3422 86.7081 -16.4337 88.2611 -17.1668 93.4641C-17.5271 96.1883 -18.2304 100.996 -18.6416 104.19C-19.1287 107.364 -19.8232 111.851 -20.2294 114.159C-20.7114 116.446 -20.9786 118.551 -20.8904 118.817C-20.7142 119.35 -21.5354 124.287 -23.4385 133.926C-23.7814 136.01 -24.2684 139.183 -24.5057 140.892C-24.8115 143.712 -24.9294 143.841 -25.8121 142.628C-26.4005 141.819 -27.0385 140.028 -27.2097 138.609C-27.4566 137.168 -29.5789 129.64 -31.8861 121.898C-35.7498 108.964 -42.1676 86.8475 -44.0926 79.7771C-46.571 70.6163 -50.1281 58.3319 -50.2795 58.2898C-50.431 58.2478 -50.3443 59.9664 -50.1359 62.1223C-49.9487 64.353 -49.599 68.3234 -49.387 71.0451C-49.1749 73.7669 -48.8464 77.812 -48.6045 80.1386C-48.3415 82.3903 -48.163 84.9414 -48.2016 85.6569C-48.2401 86.3724 -48.0194 88.7738 -47.7142 90.8759C-47.409 92.9779 -47.3011 94.6217 -47.4526 94.5797C-47.6041 94.5377 -47.5719 96.1604 -47.2667 98.2625C-46.9615 100.365 -46.9294 101.987 -47.1566 101.924C-47.3081 101.882 -47.3678 102.673 -47.0699 103.643C-46.6802 105.446 -45.806 115.372 -45.4379 122.171C-45.2966 123.986 -44.9607 129.163 -44.6073 133.699C-44.2539 138.235 -43.9974 142.825 -44.0658 143.936C-44.2187 145.346 -48.5634 138.169 -58.735 120.094C-66.646 105.875 -73.0663 95.0555 -72.8442 96.0048C-72.622 96.9541 -71.2419 101.614 -69.786 106.295C-68.2755 111.071 -64.768 122.374 -62.0201 131.448C-59.2176 140.618 -56.595 148.689 -56.276 149.585C-54.5792 153.122 -57.4557 150.871 -64.0601 143.309C-68.0202 138.82 -73.6116 132.588 -76.4619 129.376C-79.3879 126.143 -84.7732 120.049 -88.5695 115.848C-96.3806 107.063 -102.472 100.289 -108.858 93.1096C-111.36 90.398 -114.21 87.186 -115.265 86.0055C-117.376 83.6445 -103.885 107.32 -84.7542 139.663C-77.712 151.462 -72.2377 161.293 -72.5283 161.454C-73.2819 161.81 -81.5961 155.387 -81.9609 154.075C-82.2464 153.35 -82.3979 153.308 -82.5879 153.982C-82.7357 154.506 -84.166 153.786 -86.6514 151.886C-88.8004 150.24 -92.2616 147.746 -94.3014 146.292C-104.164 139.278 -117.281 129.908 -118.963 128.634C-122.067 126.32 -122.026 127.623 -118.776 130.865C-115.993 133.736 -106.445 143.89 -87.2065 164.562C-82.4431 169.677 -80.5475 172.22 -81.4985 172.118C-82.2981 172.057 -83.0889 171.676 -83.2863 171.218C-83.4079 170.781 -85.0864 170.073 -86.904 169.568C-88.8185 169.117 -93.3662 167.29 -97.1689 165.428C-100.917 163.661 -104.426 162.203 -105.019 162.281C-105.591 162.283 -106.155 161.965 -106.277 161.528C-106.398 161.091 -107.416 160.647 -108.54 160.577C-109.718 160.411 -110.433 160.052 -110.286 159.528C-110.096 158.854 -110.55 158.728 -111.952 159.065C-113.181 159.37 -113.862 159.181 -113.887 158.689C-113.912 158.198 -114.854 157.775 -115.902 157.727C-117.005 157.582 -117.796 157.201 -117.711 156.902C-117.606 156.528 -118.636 155.838 -119.923 155.481C-126.828 153.322 -129.545 152.245 -129.7 151.637C-129.767 151.296 -130.807 150.927 -131.93 150.857C-133.033 150.713 -133.824 150.332 -133.718 149.957C-133.612 149.583 -135.215 148.896 -137.357 148.383C-139.444 147.965 -141.122 147.257 -141.017 146.883C-140.911 146.508 -141.854 146.085 -143.204 145.953C-144.9 145.885 -145.54 145.546 -145.35 144.873C-145.139 144.125 -145.366 144.062 -146.486 144.558C-147.509 145 -148.06 144.928 -148.627 144.044C-149.107 143.427 -149.67 143.109 -150.037 143.249C-150.327 143.411 -153.272 142.271 -156.49 140.651C-159.784 139.011 -162.825 137.924 -163.31 138.193C-163.697 138.409 -147.522 149.677 -127.25 163.211C-101.001 180.745 -90.7809 187.939 -91.8164 188.136C-92.5279 188.342 -93.9544 188.188 -94.8421 187.861C-95.7298 187.534 -97.1564 187.38 -98.0739 187.448C-99.0125 187.591 -100.106 187.126 -100.813 186.446C-101.553 185.595 -102.158 185.427 -102.685 185.846C-103.039 186.231 -104.238 186.141 -105.277 185.772C-106.392 185.381 -107.873 185.132 -108.543 185.188C-109.212 185.244 -110.638 185.09 -111.699 184.796C-112.738 184.427 -115.3 183.958 -117.484 183.594C-119.614 183.326 -123.182 182.658 -125.42 182.198C-127.68 181.813 -129.809 181.545 -130.251 181.664C-130.693 181.783 -133.062 181.207 -135.595 180.342C-138.224 179.532 -140.332 179.189 -140.438 179.563C-140.544 179.937 -141.798 179.75 -143.173 179.126C-144.549 178.502 -145.954 178.274 -146.287 178.585C-146.695 178.875 -147.701 178.676 -148.622 178.179C-149.544 177.681 -151.025 177.431 -151.93 177.745C-153.353 178.157 -153.201 178.199 -151.375 178.383C-150.154 178.399 -149.061 178.864 -148.96 179.376C-148.86 179.888 -147.82 180.257 -146.773 180.306C-145.725 180.355 -144.513 180.691 -144.143 181.117C-143.327 181.988 -135.608 185.019 -131.779 185.92C-130.491 186.278 -129.419 186.817 -129.524 187.192C-129.63 187.566 -128.763 187.968 -127.53 188.229C-126.352 188.395 -125.38 188.423 -125.359 188.348C-125.317 188.198 -123.036 188.508 -117.057 189.603C-115.024 189.925 -113.046 190.151 -112.507 189.978C-112.065 189.859 -110.79 189.971 -109.882 190.223C-105.586 191.496 -97.9193 192.978 -97.2078 192.772C-96.6901 192.674 -94.1275 193.143 -91.4011 193.9C-88.6747 194.657 -85.8092 195.21 -84.9674 195.121C-84.1256 195.032 -82.3626 195.44 -80.987 196.064C-79.6114 196.688 -78.206 196.917 -77.8732 196.606C-77.4647 196.316 -75.2597 196.605 -72.912 197.256C-66.0413 199.244 -64.8966 199.239 -63.5182 196.959C-62.8774 195.846 -62.3794 194.37 -62.3954 193.559C-62.3569 192.843 -61.9943 192.137 -61.5522 192.017C-61.0134 191.844 -60.6719 191.213 -60.8059 190.53C-60.8431 189.793 -60.4134 189.428 -59.8833 189.576C-59.126 189.786 -59.008 189.657 -59.5629 189.019C-60.0632 188.477 -59.2411 187.01 -56.6161 183.785C-47.9488 173.038 -35.3971 166.758 -21.9756 166.367C-15.81 166.223 -3.54477 169.062 -3.96706 170.559C-4.17821 171.307 -4.02674 171.349 -3.26434 170.673C-2.4051 169.944 -1.38705 170.388 3.12575 173.496C6.06558 175.522 9.72418 178.475 11.3008 180.123C14.7905 183.673 19.7448 191.585 21.4614 196.499C23.1022 201.393 24.2073 211.948 23.338 214.45C22.9244 215.626 22.8982 216.587 23.2769 216.693C23.6556 216.798 23.4481 218.112 22.6806 219.674C21.137 223.119 21.9985 224.407 26.4631 225.081C28.1169 225.298 29.9891 225.899 30.662 226.408C31.3349 226.918 34.5281 228.046 37.7846 228.95C40.9654 229.833 43.7589 230.931 43.8805 231.368C44.0021 231.806 44.9656 232.154 46.0892 232.223C47.1371 232.272 48.576 232.672 49.1731 233.16C49.846 233.67 52.5091 234.651 55.1809 235.312C57.7558 236.027 59.813 236.84 59.7286 237.139C59.6441 237.438 60.7168 237.978 62.0589 238.431C64.6884 239.242 71.8235 242.029 71.7601 242.254C71.739 242.329 73.2872 242.92 75.2351 243.541C77.1831 244.162 78.9163 244.966 79.1559 245.275C79.2986 245.637 79.9802 245.826 80.6494 245.77C81.3186 245.714 82.4037 246.499 82.971 247.383C83.5929 248.362 84.3961 248.989 84.7624 248.848C85.0741 248.612 84.986 248.346 84.5316 248.219C84.0014 248.072 83.7283 247.593 83.855 247.144C84.0028 246.62 85.1264 246.69 86.6535 247.356C88.0502 247.905 89.3042 248.092 89.4098 247.717C89.5153 247.343 90.7693 247.53 92.1449 248.154C93.5205 248.778 94.9259 249.006 95.3344 248.716C95.6883 248.33 96.7362 248.379 97.5482 248.685C98.457 248.938 100.708 249.643 102.622 250.094C105.37 250.776 105.812 250.656 104.921 249.763C104.366 249.125 103.12 248.618 102.279 248.707C101.382 248.7 100.57 248.394 100.47 247.882C100.348 247.445 99.4815 247.043 98.5851 247.036C97.6887 247.03 96.4223 246.598 95.8251 246.109C95.1523 245.599 93.6252 244.934 92.3923 244.672C91.1384 244.485 89.9565 243.754 89.8224 243.071C89.5035 242.176 89.352 242.134 89.162 242.807C88.8452 243.93 86.0766 243.322 85.6906 242.086C85.5143 241.553 85.0264 241.256 84.5633 241.45C84.1213 241.569 81.231 240.525 78.1012 239.172C75.0682 237.765 71.0841 236.256 69.3422 235.773C67.5035 235.343 66.1279 234.719 66.2335 234.345C66.3179 234.046 65.3756 233.623 64.1005 233.511C62.8466 233.324 61.6982 232.763 61.543 232.155C61.3333 231.452 60.9546 231.347 59.9315 231.789C59.199 232.07 58.1722 231.946 57.4993 231.436C56.8264 230.927 55.3751 230.282 54.218 230.042C52.964 229.855 52.1397 229.303 52.2452 228.929C52.3508 228.555 51.4842 228.153 50.2849 228.062C48.7069 227.866 48.3704 227.612 49.0484 227.235C49.9411 226.676 56.4395 226.22 69.0826 225.695C71.372 225.685 74.5455 225.436 76.1323 225.311C78.8848 225.107 85.762 224.756 88.5481 224.723C89.1961 224.741 98.5775 224.198 109.276 223.617C119.996 222.961 129.184 222.526 129.605 222.481C135.404 222.477 137.369 222.458 137.433 222.233C137.559 221.784 130.229 220.557 123.799 219.902C120.298 219.575 116.915 219.12 116.309 218.952C113.431 218.153 107.086 217.199 106.201 217.438C105.663 217.611 104.96 217.497 104.72 217.188C104.481 216.88 102.676 216.621 100.752 216.49C98.8292 216.36 95.2733 215.938 92.8833 215.436C90.4723 215.009 86.5589 214.407 84.1813 214.15C81.8037 213.894 79.2958 213.52 78.6899 213.352C76.4936 212.743 62.1698 210.542 61.4584 210.748C60.3049 211.073 50.5389 208.928 50.7079 208.329C50.8979 207.656 49.917 207.948 75.2508 200.939C105.102 192.682 105.102 192.682 105.662 192.434C106.361 191.983 101.512 192.09 99.5928 192.525C98.7298 192.689 95.7078 192.98 92.9552 193.184C85.2574 193.549 74.4197 194.334 67.9969 194.81C57.1381 195.67 47.4748 196.054 47.1806 195.649C47.0925 195.383 54.4952 191.143 63.6747 186.106C107.378 162.328 123.724 153.309 122.516 153.538C121.826 153.669 115.402 155.598 108.245 157.808C101.089 160.017 93.2962 162.454 90.7956 163.212C85.8912 164.675 72.925 168.662 57.7066 173.395C41.8524 178.355 39.6088 178.781 41.012 176.992C41.3113 176.51 46.8629 171.595 53.2315 166.1C59.6212 160.531 67.085 154.049 69.7807 151.731C72.4975 149.338 77.0507 145.357 79.9613 142.856C84.8262 138.639 83.104 139.532 58.4412 153.425C29.3991 169.814 29.4959 169.76 37.0222 159.584C38.9816 156.981 42.2139 152.472 44.3547 149.515C48.455 143.956 51.5693 139.575 57.8104 131.059C65.1007 121.14 72.7325 110.59 73.8662 108.887C74.5405 107.944 76.5633 105.117 78.426 102.567C80.3097 99.9431 81.7427 97.7586 81.6335 97.5669C81.5242 97.3752 76.9921 101.282 71.6677 106.259C66.2676 111.216 61.0611 116.065 60.0628 116.998C59.0645 117.932 52.666 123.821 45.8169 130.151C38.9677 136.481 32.5692 142.371 31.5709 143.304C30.5937 144.162 27.3628 147.22 24.4647 149.966C18.8286 155.18 17.0518 155.978 18.6501 152.629C20.375 148.831 23.1172 142.007 23.1346 141.366C23.1644 140.971 24.4634 138.103 26.0741 135C27.609 131.876 29.2793 127.982 29.7227 126.41C30.1661 124.839 30.8491 123.576 31.2278 123.681C31.5307 123.765 31.9145 122.984 31.9829 121.873C32.0935 120.613 32.5107 120.002 33.1166 120.17C33.7982 120.36 33.9373 120.156 33.4879 119.144C33.0721 118.302 33.4733 116.88 34.8269 114.109C37.4285 108.941 40.3359 100.952 38.7303 103.169C38.1318 104.133 32.2781 112.433 25.8048 121.772C19.2769 131.015 13.7138 139.154 13.3177 139.69C8.65969 147.516 4.91472 151.237 5.75197 147.112C6.02646 146.139 6.48732 143.927 6.82149 142.164C7.23139 140.422 7.82034 136.308 8.32848 133.06C8.76088 129.791 9.33605 126.884 9.55086 126.702C9.78678 126.445 10.2265 124.307 10.4813 121.957C10.7361 119.607 11.4852 115.215 12.0604 112.309C12.7324 109.348 13.5324 104.487 13.9015 101.442C14.2706 98.3973 14.7278 95.6193 14.9091 95.2661C15.3052 94.7305 16.5152 88.1267 17.929 79.6428C18.2297 77.709 18.8347 74.407 19.2955 72.1949C20.6781 65.5583 19.7321 64.5694 17.3825 70.2921Z" fill="#A4C7FB" fill-opacity="0.2"/>
<path d="M20.6512 56.8172C19.934 57.6765 19.3166 59.0547 19.2383 59.9317C19.16 60.8087 18.7541 62.0016 18.2898 62.5239C17.1622 64.0026 15.7546 69.1623 16.4269 69.353C16.7256 69.4377 17.3016 68.2113 17.7156 66.6938C18.44 64.038 18.5354 63.9833 19.2625 65.7428C19.9357 67.4052 20.0103 67.4264 19.9843 65.457C19.9753 64.31 19.9537 62.9141 19.8952 62.2435C19.8034 61.4 20.0689 61.3118 20.617 61.9577C21.2397 62.6249 21.3558 62.4943 21.2181 61.229C21.0516 60.3643 21.2622 58.7073 21.5934 57.4932C22.2765 54.9892 22.2018 54.9681 20.6512 56.8172Z" fill="#A4C7FB" fill-opacity="0.2"/>
<path d="M18.5447 69.7738C18.1709 71.1387 18.2537 72.3064 18.6273 72.4126C19.0755 72.54 19.4534 71.7484 19.5076 70.3744C19.5704 67.2049 19.2923 67.0442 18.5447 69.7738Z" fill="#A4C7FB" fill-opacity="0.2"/>
<path d="M80.648 95.3745C77.726 98.0518 74.1452 101.358 72.6363 102.723C69.7561 105.249 67.8462 107.48 68.2954 107.608C68.4452 107.651 71.4421 104.995 74.8731 101.646C78.2831 98.3735 81.2591 95.7932 81.3461 96.0627C81.454 96.2566 80.0352 98.4641 78.1703 101.116C71.3992 110.695 68.2951 115.197 68.436 115.563C68.6727 115.876 74.1449 108.946 74.492 107.984C74.5758 107.682 76.737 104.543 79.1526 101.069C81.6641 97.5404 83.6006 94.3379 83.4807 93.8958C83.2858 93.4323 83.5194 93.1724 83.8938 93.2789C84.7174 93.5133 86.3939 91.5424 86.0163 90.8637C85.9084 90.6698 83.4952 92.6759 80.648 95.3745Z" fill="#A4C7FB" fill-opacity="0.2"/>
<path d="M17.6971 75.985C17.4243 76.9675 17.5892 77.8298 17.964 77.9364C18.9384 78.2135 19.1692 77.3821 18.5935 75.6691C18.2456 74.5916 18.0747 74.6246 17.6971 75.985Z" fill="#A4C7FB" fill-opacity="0.2"/>
<path d="M12.4846 78.6775C11.8262 80.2077 10.8736 82.2267 10.3599 83.2257C9.73019 84.3552 9.77616 84.777 10.3484 84.4487C11.2275 83.8804 14.5944 76.2507 13.9969 76.0814C13.8475 76.039 13.1224 77.2233 12.4846 78.6775Z" fill="#A4C7FB" fill-opacity="0.2"/>
<path d="M16.294 84.2543C15.7798 86.1535 15.6059 87.9849 15.9181 88.318C16.4135 88.8662 17.87 81.9999 17.4569 81.1479C17.3484 80.9539 16.8287 82.2792 16.294 84.2543Z" fill="#A4C7FB" fill-opacity="0.2"/>
<path d="M41.5405 95.991C41.0033 97.0631 40.786 98.1447 41.0434 98.3813C41.72 99.1456 43.09 96.5137 42.7299 95.1861C42.502 94.5495 42.0986 94.843 41.5405 95.991Z" fill="#A4C7FB" fill-opacity="0.2"/>
<path d="M9.17853 86.7619C9.05332 87.2163 8.46198 88.1913 8.02892 88.8846C7.36279 89.8383 7.41672 89.9354 8.25679 89.5212C8.92641 89.1401 9.49688 88.2408 9.4812 87.4197C9.48638 86.5229 9.39941 86.2531 9.17853 86.7619Z" fill="#A4C7FB" fill-opacity="0.2"/>
<path d="M14.3146 96.5216C13.5193 100.059 13.1054 103.376 13.3225 103.764C13.811 104.637 15.2841 98.5922 15.029 96.5586C14.9146 95.7908 15.1611 94.879 15.5088 94.4862C15.8359 94.1693 16.0693 93.0086 15.8874 91.8948C15.6923 90.5321 15.2478 91.8787 14.3146 96.5216Z" fill="#A4C7FB" fill-opacity="0.2"/>
<path d="M38.9644 99.292C38.457 99.9644 38.4606 100.537 38.9839 100.686C39.5073 100.835 39.3859 101.862 38.5865 103.595C37.1252 106.855 38.6305 105.487 40.3039 102.042C40.999 100.688 41.1743 99.7575 40.7171 99.9542C40.2808 100.075 39.8947 99.7201 39.8911 99.1473C39.8335 98.4774 39.4928 98.5438 38.9644 99.292Z" fill="#A4C7FB" fill-opacity="0.2"/>
<path d="M7.71481 91.9145C7.54957 92.5218 7.18089 92.9897 6.88208 92.9052C6.50858 92.7994 5.87138 94.2542 5.37567 96.076C4.85929 97.9738 4.73226 99.3277 5.03898 99.0875C5.82248 98.5735 8.92104 91.0296 8.39814 90.8816C8.17404 90.8182 7.88005 91.3072 7.71481 91.9145Z" fill="#A4C7FB" fill-opacity="0.2"/>
<path d="M65.3278 109.811C60.6259 114.177 60.04 114.825 61.482 114.013C63.3085 112.984 67.9564 108.521 67.4308 108.372C67.2055 108.308 66.2982 108.946 65.3278 109.811Z" fill="#A4C7FB" fill-opacity="0.2"/>
<path d="M37.0687 102.62C36.5188 103.443 36.1933 104.33 36.3551 104.621C36.5377 104.837 37.058 104.413 37.6079 103.59C38.1578 102.767 38.4833 101.88 38.3215 101.589C38.1388 101.373 37.6186 101.797 37.0687 102.62Z" fill="#A4C7FB" fill-opacity="0.2"/>
<path d="M65.7534 118.866C64.8127 120.231 64.192 121.607 64.3747 121.822C64.5364 122.113 65.3519 121.202 66.2926 119.836C67.2333 118.47 67.8539 117.095 67.6713 116.88C67.5095 116.589 66.694 117.5 65.7534 118.866Z" fill="#A4C7FB" fill-opacity="0.2"/>
<path d="M58.125 116.603C57.347 117.36 56.0044 118.689 55.1513 119.424C54.2773 120.235 53.7666 120.905 53.9918 120.968C54.5924 121.139 60.1461 116.037 59.876 115.553C59.6928 115.338 58.924 115.771 58.125 116.603Z" fill="#A4C7FB" fill-opacity="0.2"/>
<path d="M3.32467 102.233C1.84425 106.803 -0.640634 113.297 -1.08376 113.744C-1.39036 113.985 -1.32325 114.331 -0.949533 114.436C-0.127364 114.668 4.39699 103.026 3.83491 102.132C3.69305 101.765 3.42764 101.853 3.32467 102.233Z" fill="#A4C7FB" fill-opacity="0.2"/>
<path d="M30.9525 111.75C30.0538 112.965 28.9883 114.785 28.5468 115.803C28.1054 116.821 28.9746 116.006 30.3478 113.947C31.7958 111.909 32.8613 110.088 32.7535 109.894C32.6457 109.7 31.8512 110.536 30.9525 111.75Z" fill="#A4C7FB" fill-opacity="0.2"/>
<path d="M34.7619 112.767C34.4922 113.753 33.8324 115.282 33.3178 116.28C32.5293 117.691 32.5625 117.864 33.4755 117.469C34.7164 116.759 36.7124 111.523 35.816 111.269C35.4425 111.162 35.0109 111.857 34.7619 112.767Z" fill="#A4C7FB" fill-opacity="0.2"/>
<path d="M11.2292 114.443C10.8341 116.784 10.6218 119.34 10.8302 120.053C11.2597 121.728 12.3449 114.186 12.101 111.828C11.9752 110.812 11.5909 111.929 11.2292 114.443Z" fill="#A4C7FB" fill-opacity="0.2"/>
<path d="M59.4163 127.604C58.4544 129.045 57.7587 130.398 57.9205 130.689C58.2979 131.368 61.2166 127.218 61.2097 126.072C61.1314 125.479 60.3782 126.162 59.4163 127.604Z" fill="#A4C7FB" fill-opacity="0.2"/>
<path d="M25.7166 119.727C23.6441 122.567 22.3992 124.745 22.7731 124.851C23.2966 125 27.5337 118.692 27.2641 118.207C27.1563 118.013 26.4782 118.719 25.7166 119.727Z" fill="#A4C7FB" fill-opacity="0.2"/>
<path d="M83.2306 137.891C80.0552 139.676 77.3279 141.019 77.1235 140.88C76.9191 140.741 76.5552 140.882 76.2785 141.292C75.3099 142.726 72.721 143.864 72.0207 143.177C71.633 142.823 71.5367 142.878 71.7531 143.264C71.9484 143.727 69.1606 145.866 65.5792 147.944C61.9767 150.096 60.855 150.918 63.0471 149.749C65.3144 148.601 70.682 145.646 75.0121 143.211C79.2882 140.68 82.8816 138.85 83.0649 139.065C83.152 139.333 81.3595 141.104 79.0319 143.048C76.7793 145.014 72.5089 148.687 69.691 151.224C66.7979 153.741 63.574 156.571 62.5064 157.489C61.3425 158.461 60.6388 159.238 60.8642 159.302C61.0897 159.366 64.7315 156.492 68.9268 152.798C73.101 149.18 77.0315 146.143 77.5667 145.97C78.1019 145.796 78.2614 145.515 77.9607 145.43C77.6601 145.345 78.8331 144.05 80.5413 142.581C82.3246 141.133 83.9035 139.546 84.2013 139.061C84.4991 138.576 85.9517 137.441 87.4913 136.576C89.0098 135.785 89.9601 134.997 89.5843 134.89C89.2086 134.784 86.3099 136.159 83.2306 137.891Z" fill="#A4C7FB" fill-opacity="0.2"/>
<path d="M48.2166 126.175C47.4178 127.007 46.0754 128.337 45.1805 129.223C43.625 130.736 43.7 130.758 45.3005 129.664C47.3064 128.279 50.4806 125.025 49.9552 124.876C49.7301 124.812 48.9193 125.397 48.2166 126.175Z" fill="#A4C7FB" fill-opacity="0.2"/>
<path d="M29.7111 125.51C29.319 126.952 29.1382 128.209 29.2877 128.252C29.4371 128.294 30.0661 127.164 30.6076 125.763C31.1491 124.363 31.3298 123.106 31.031 123.022C30.7321 122.937 30.1031 124.067 29.7111 125.51Z" fill="#A4C7FB" fill-opacity="0.2"/>
<path d="M125.551 150.855C123.694 151.387 122.322 152.217 122.463 152.582C122.584 153.022 113.91 158.126 103.165 163.944C92.4952 169.784 85.4081 173.874 87.4467 172.988C92.2326 171.009 129.432 150.65 129.161 150.168C129.052 149.975 127.43 150.248 125.551 150.855Z" fill="#A4C7FB" fill-opacity="0.2"/>
<path d="M54.7129 134.497C52.2273 137.954 52.0273 138.387 53.224 138.728C53.6728 138.856 53.9598 138.692 53.7232 138.38C53.5614 138.089 54.2989 136.584 55.3565 135.088C57.9256 131.328 57.4316 130.779 54.7129 134.497Z" fill="#A4C7FB" fill-opacity="0.2"/>
<path d="M10.114 122.865C9.78849 123.752 9.89101 124.843 10.2024 125.176C10.954 125.962 11.1419 125.28 10.829 122.905C10.6274 121.296 10.5526 121.275 10.114 122.865Z" fill="#A4C7FB" fill-opacity="0.2"/>
<path d="M42.134 132.209C41.6656 132.728 41.0561 132.881 40.6899 132.451C40.3026 132.097 40.1855 132.226 40.3595 132.765C40.4585 133.281 38.5005 135.658 35.921 137.94C33.3415 140.222 30.5068 142.838 29.6869 143.746C28.3026 145.226 28.2815 145.302 29.6808 144.64C30.5785 144.325 31.3142 143.719 31.4194 143.342C31.5245 142.964 33.6657 140.802 36.2451 138.521C41.9476 133.46 43.8756 131.482 43.2751 131.311C43.05 131.247 42.5275 131.669 42.134 132.209Z" fill="#A4C7FB" fill-opacity="0.2"/>
<path d="M117.508 153.118C115.701 153.745 114.12 154.436 114.057 154.661C114.014 154.811 115.586 154.441 117.545 153.856C120.676 152.871 121.816 152.3 121.06 152.088C120.984 152.067 119.392 152.512 117.508 153.118Z" fill="#A4C7FB" fill-opacity="0.2"/>
<path d="M8.95593 128.427C8.80824 129.857 8.37931 132.024 8.04884 133.239C7.71836 134.453 7.74865 135.525 8.04745 135.609C8.94386 135.863 9.94148 130.423 9.59002 127.87C9.24338 125.892 9.24338 125.892 8.95593 128.427Z" fill="#A4C7FB" fill-opacity="0.2"/>
<path d="M109.34 155.672C107.814 156.459 106.254 157.075 106.028 157.011C105.347 156.821 94.5658 160.36 94.439 160.81C94.2276 161.56 111.499 156.114 112.151 155.244C113.04 154.117 112.103 154.26 109.34 155.672Z" fill="#A4C7FB" fill-opacity="0.2"/>
<path d="M17.6203 131.664C16.8161 132.823 16.1077 133.927 16.0241 134.23C16.0362 134.478 15.5367 134.826 15.0251 134.925C14.5674 135.122 14.3254 135.706 14.4575 136.397C14.6644 137.109 15.6095 136.316 17.1431 133.977C19.6392 130.197 20.0746 128.035 17.6203 131.664Z" fill="#A4C7FB" fill-opacity="0.2"/>
<path d="M46.6672 145.951C41.4978 153.3 40.3312 156.072 45.0711 149.989C46.5943 147.972 47.9054 146.14 47.968 145.913C48.0097 145.761 48.8964 144.299 50.0493 142.748C51.1273 141.177 51.8645 139.671 51.7566 139.477C51.6488 139.283 49.3849 142.233 46.6672 145.951Z" fill="#A4C7FB" fill-opacity="0.2"/>
<path d="M26.0448 134.647C25.7176 134.963 24.664 137.364 23.7933 139.98C22.5259 143.465 22.4487 144.342 23.3145 143.524C23.8736 142.946 24.345 142.098 24.2238 141.655C24.1027 141.212 24.6925 139.334 25.5813 137.541C27.127 134.217 27.3125 133.533 26.0448 134.647Z" fill="#A4C7FB" fill-opacity="0.2"/>
<path d="M89.8927 162.104C88.0305 162.635 86.4707 163.251 86.4073 163.476C86.2804 163.926 92.3627 162.309 93.1243 161.632C93.9283 160.805 93.6592 160.892 89.8927 162.104Z" fill="#A4C7FB" fill-opacity="0.2"/>
<path d="M26.3621 146.607C25.4633 146.922 24.919 147.419 25.0061 147.687C25.1683 147.978 24.0918 149.219 22.6185 150.429C21.1452 151.639 19.8763 152.989 19.7499 153.441C19.6235 153.894 19.3019 153.884 18.9142 153.53C18.6017 153.197 18.1839 153.241 18.0785 153.618C17.5729 155.428 19.4128 154.648 22.3145 151.808C23.9893 150.166 26.07 148.233 26.945 147.423C28.6739 145.878 28.5658 145.685 26.3621 146.607Z" fill="#A4C7FB" fill-opacity="0.2"/>
<path d="M9.96334 142.317C10.1043 142.684 9.7986 143.494 9.13919 144.122C8.45881 144.825 8.29101 145.43 8.74066 145.558C9.41514 145.75 10.7969 144.267 11.1744 142.906C11.2793 142.528 10.9885 142.119 10.4639 141.97C10.0143 141.842 9.80144 142.027 9.96334 142.317Z" fill="#A4C7FB" fill-opacity="0.2"/>
<path d="M21.6586 145.533C21.2978 145.676 20.6808 147.055 20.2878 148.497C19.3572 151.912 20.481 151.331 21.6771 147.828C22.6124 144.986 22.6124 144.986 21.6586 145.533Z" fill="#A4C7FB" fill-opacity="0.2"/>
<path d="M6.3861 144.442C6.20088 145.695 5.95285 147.174 5.8063 147.704C5.40852 149.141 6.85213 149.47 7.84893 148.204C8.26199 147.587 8.21371 146.594 7.68636 145.873C7.23389 145.173 6.81122 144.073 6.75408 143.404C6.77181 142.756 6.57132 143.189 6.3861 144.442Z" fill="#A4C7FB" fill-opacity="0.2"/>
<path d="M51.6267 155.912C50.7249 156.226 50.1578 156.797 50.3959 157.107C50.5376 157.472 50.248 157.634 49.5696 157.443C48.2126 157.061 45.0064 158.917 45.5701 159.806C45.7118 160.17 45.3468 160.311 44.6684 160.12C44.0653 159.95 43.1424 160.339 42.7049 161.027C42.2674 161.715 39.963 163.257 37.6467 164.552C33.5176 166.798 33.4211 166.851 34.4108 164.777C35.2194 163.057 35.1651 162.961 34.0943 163.877C33.4307 164.501 32.77 165.694 32.6883 166.564C32.501 167.81 34.7329 166.815 43.6124 161.851C49.6929 158.451 54.3349 155.539 53.9579 155.433C53.5056 155.305 52.4531 155.577 51.6267 155.912Z" fill="#A4C7FB" fill-opacity="0.2"/>
<path d="M78.9627 165.536C77.9832 165.829 75.734 166.575 73.9051 167.278C72.055 168.055 70.2139 168.511 69.7603 168.384C69.3824 168.279 68.3818 168.646 67.6624 169.173C66.4381 170.044 66.417 170.119 67.5688 169.794C70.6162 169.109 80.9582 165.69 81.0428 165.39C81.1485 165.015 80.9973 164.973 78.9627 165.536Z" fill="#A4C7FB" fill-opacity="0.2"/>
<path d="M51.0186 168.078C46.0925 172.381 41.7641 176.283 41.4667 176.769C40.5835 177.903 41.8057 178.168 43.9862 177.321C45.4608 176.681 45.4819 176.606 44.3257 176.685C43.5118 176.698 42.8902 176.603 42.9743 176.301C43.1847 175.546 56.1518 164.485 57.6265 163.845C58.4283 163.583 58.8549 163.216 58.5546 163.131C58.2543 163.045 58.5187 162.387 59.2006 161.685C62.1834 158.541 59.2819 160.812 51.0186 168.078Z" fill="#A4C7FB" fill-opacity="0.2"/>
<path d="M38.3147 157.653C36.8022 159.916 36.0971 161.593 36.8628 161.158C38.0323 160.43 41.0575 155.902 40.4589 155.732C40.0848 155.625 39.1189 156.494 38.3147 157.653Z" fill="#A4C7FB" fill-opacity="0.2"/>
<path d="M63.8241 170.232C63.3406 170.501 61.8569 171.138 60.5455 171.742L58.2338 172.714L61.1076 172.062C64.1536 171.376 66.6254 170.126 65.4921 169.808C65.0932 169.778 64.4042 169.909 63.8241 170.232Z" fill="#A4C7FB" fill-opacity="0.2"/>
<path d="M69.3206 183.118C62.3526 187.08 59.8772 188.655 63.7696 186.667C67.6832 184.605 71.3073 182.704 71.8651 182.455C72.5194 182.153 75.0702 180.599 77.7175 178.991C86.4524 173.661 82.0233 175.821 69.3206 183.118Z" fill="#A4C7FB" fill-opacity="0.2"/>
<path d="M54.1706 173.682C52.3628 174.309 50.5428 174.69 50.1649 174.585C49.7869 174.479 48.6684 174.975 47.6043 175.568C45.703 176.816 45.703 176.816 47.6953 176.402C50.4736 175.803 57.6837 173.369 57.7894 172.995C57.9374 172.47 57.5927 172.535 54.1706 173.682Z" fill="#A4C7FB" fill-opacity="0.2"/>
<path d="M111.782 190.349C111.07 190.555 109.504 190.606 108.304 190.515C107.2 190.371 105.516 190.55 104.632 190.789C103.208 191.201 103.187 191.276 104.787 191.396C105.835 191.445 106.703 191.846 106.9 192.304C107.022 192.741 107.553 192.887 108.21 192.585C108.867 192.284 110.354 191.647 111.647 191.118C114.039 190.168 114.165 189.719 111.782 190.349Z" fill="#A4C7FB" fill-opacity="0.2"/>
<path d="M100.033 191.321C99.2242 191.581 97.6777 191.557 96.5948 191.339C95.5118 191.121 94.4963 191.244 94.4121 191.543C94.3278 191.842 94.0371 192.003 93.7547 191.845C93.3965 191.666 91.7321 191.77 89.8738 191.983C88.0914 192.217 86.3932 192.151 86.0772 191.822C85.7611 191.494 85.3945 191.634 85.2682 192.083C85.1418 192.531 84.7963 192.597 84.4043 192.247C84.0883 191.918 83.6669 191.963 83.5195 192.486C83.2457 193.458 83.4184 193.425 92.9289 192.745C99.7805 192.217 103.712 191.61 102.271 191.213C101.892 191.108 100.821 191.135 100.033 191.321Z" fill="#A4C7FB" fill-opacity="0.2"/>
<path d="M100.723 193.543C94.0232 195.312 92.1422 196.484 98.1647 195.092C102.787 194.037 107.212 192.523 106.401 192.216C106.174 192.153 103.642 192.74 100.723 193.543Z" fill="#A4C7FB" fill-opacity="0.2"/>
<path d="M78.9438 192.914C77.0661 193.2 75.8156 193.579 76.1944 193.684C77.44 194.191 82.4371 193.56 82.6059 192.961C82.817 192.213 83.1411 192.222 78.9438 192.914Z" fill="#A4C7FB" fill-opacity="0.2"/>
<path d="M89.1284 196.953C86.9239 197.55 85.4532 198.434 85.6283 198.969C85.8367 199.675 86.0843 199.664 86.4799 199.127C86.7789 198.644 87.3497 198.642 87.6637 198.973C88.1077 199.421 88.2254 199.292 88.0503 198.757C87.8963 198.147 88.002 197.772 88.3795 197.877C88.6815 197.962 90.0042 197.604 91.2937 197.075C94.4314 195.768 93.5375 195.76 89.1284 196.953Z" fill="#A4C7FB" fill-opacity="0.2"/>
<path d="M70.7794 193.271C70.8468 193.611 69.9621 193.851 68.8373 193.782C67.6157 193.767 66.8279 193.952 66.9374 194.143C67.2448 194.792 73.1677 194.655 73.3363 194.057C73.4206 193.758 72.8225 193.271 72.0643 193.061C71.2303 192.831 70.6363 192.909 70.7794 193.271Z" fill="#A4C7FB" fill-opacity="0.2"/>
<path d="M10.6569 179.911C11.2984 180.818 12.4059 182.097 13.132 182.704L14.433 183.876L13.2588 182.254C12.6173 181.348 11.5098 180.068 10.7837 179.461L9.48271 178.289L10.6569 179.911Z" fill="#A4C7FB" fill-opacity="0.2"/>
<path d="M77.3691 200.332C70.3795 202.262 66.2151 204.011 72.2793 202.469C74.2179 201.959 76.7495 201.372 77.9774 201.068C80.3154 200.588 84.997 198.741 84.3919 198.573C84.1439 198.584 80.9984 199.324 77.3691 200.332Z" fill="#A4C7FB" fill-opacity="0.2"/>
<path d="M51.2529 193.079C47.5537 194.959 46.9446 195.68 48.6777 196.169C49.2805 196.339 49.796 196.241 49.9016 195.865C50.098 194.296 50.5804 194.026 51.0593 195.217C51.4629 196.386 51.5382 196.407 51.5114 195.344C51.5297 194.7 52.4163 193.57 53.5198 192.826C56.5527 191.002 55.2204 191.113 51.2529 193.079Z" fill="#A4C7FB" fill-opacity="0.2"/>
<path d="M59.7922 194.38C56.7729 195.237 58.1281 195.935 61.9598 195.384C63.644 195.205 64.1495 194.862 63.4762 194.353C62.9333 193.96 61.2913 193.989 59.7922 194.38Z" fill="#A4C7FB" fill-opacity="0.2"/>
<path d="M140.886 220.549C140.465 220.594 138.614 220.489 136.86 220.33C133.676 220.019 133.676 220.019 135.633 221.2C136.764 221.831 138.51 222.31 139.602 222.208C140.694 222.105 141.702 222.301 141.867 222.587C142.01 222.948 142.343 222.638 142.532 221.966C142.889 220.696 142.552 220.443 140.886 220.549Z" fill="#A4C7FB" fill-opacity="0.2"/>
<path d="M20.0407 193.594C21.1264 196.095 22.1129 198.082 22.2634 198.124C22.7901 198.273 20.7362 193.14 19.4064 191.219C18.7356 190.136 19.0091 191.188 20.0407 193.594Z" fill="#A4C7FB" fill-opacity="0.2"/>
<path d="M60.7197 205.252C56.4568 206.488 53.5847 207.707 53.7391 208.317C53.9147 208.851 53.57 208.916 52.8986 208.405C52.206 207.969 51.6557 207.896 51.5289 208.346C51.402 208.796 51.9434 209.19 52.7417 209.251C53.4643 209.291 54.1415 208.914 54.1927 208.443C54.2228 208.047 57.2249 206.945 60.8319 206.011C66.28 204.622 69.3577 203.541 68.2993 203.245C68.1481 203.203 64.7892 204.124 60.7197 205.252Z" fill="#A4C7FB" fill-opacity="0.2"/>
<path d="M119.921 218.083C119.837 218.382 119.035 218.325 118.11 217.833C117.281 217.286 115.947 217.085 115.213 217.368C114.328 217.609 115.503 218.089 118.855 218.678C124.205 219.729 127.373 219.222 122.79 218.059C121.325 217.741 120.025 217.71 119.921 218.083Z" fill="#A4C7FB" fill-opacity="0.2"/>
<path d="M133.45 221.819C133.16 221.981 132.165 222.029 131.268 222.023C130.315 221.922 128.802 222.068 127.993 222.329C126.666 222.688 126.797 222.804 128.722 222.932C131.946 223.096 136.548 222.431 135.128 221.959C134.466 221.696 133.741 221.658 133.45 221.819Z" fill="#A4C7FB" fill-opacity="0.2"/>
<path d="M110.083 216.744C108.473 216.945 108.452 217.019 110.045 217.459C110.934 217.784 112.025 217.683 112.358 217.372C113.142 216.621 112.459 216.433 110.083 216.744Z" fill="#A4C7FB" fill-opacity="0.2"/>
<path d="M96.4119 214.806C94.4834 214.683 92.61 214.655 92.2983 214.892C91.7169 215.215 99.3398 216.326 99.9972 216.023C100.945 215.558 99.6743 215.131 96.4119 214.806Z" fill="#A4C7FB" fill-opacity="0.2"/>
<path d="M120.368 222.515C118.281 222.666 116.954 223.025 117.443 223.321C117.856 223.595 119.631 223.681 121.317 223.501C123.024 223.246 124.701 223.385 125.018 223.713C125.334 224.042 125.701 223.901 125.806 223.528C126.1 222.482 124.941 222.244 120.368 222.515Z" fill="#A4C7FB" fill-opacity="0.2"/>
<path d="M81.9785 212.646C81.3629 212.8 80.4297 212.627 79.8631 212.313C79.2966 211.998 78.1904 211.859 77.478 212.068C76.5926 212.31 77.3112 212.665 79.6338 213.135C81.5763 213.501 84.051 214.011 85.2675 214.341C86.4288 214.576 87.4454 214.45 87.5496 214.076C87.7581 213.329 83.4035 212.229 81.9785 212.646Z" fill="#A4C7FB" fill-opacity="0.2"/>
<path d="M71.9444 211.42L69.138 211.219L71.9083 212.133C73.4284 212.547 75.032 212.662 75.3645 212.35C76.1265 211.674 76.1265 211.674 71.9444 211.42Z" fill="#A4C7FB" fill-opacity="0.2"/>
<path d="M59.1338 209.627C54.8213 209.255 54.1143 210.027 58.3088 210.527C60.2922 210.747 62.0475 210.904 62.2413 210.796C63.1896 210.331 61.9948 209.925 59.1338 209.627Z" fill="#A4C7FB" fill-opacity="0.2"/>
<path d="M107.869 223.484C106.694 223.885 106.673 223.96 107.659 224.232C108.265 224.399 109.432 224.318 110.144 224.112C111.32 223.712 111.341 223.637 110.355 223.365C109.748 223.197 108.581 223.278 107.869 223.484Z" fill="#A4C7FB" fill-opacity="0.2"/>
<path d="M102.895 223.782C101.72 224.182 101.699 224.257 102.684 224.529C103.291 224.696 104.458 224.616 105.17 224.409C106.345 224.009 106.367 223.934 105.381 223.662C104.774 223.495 103.607 223.575 102.895 223.782Z" fill="#A4C7FB" fill-opacity="0.2"/>
<path d="M96.0273 224.149C93.8101 224.183 92.179 224.459 92.3435 224.745C92.6177 225.223 100.934 225.015 101.081 224.492C101.208 224.044 100.559 224.027 96.0273 224.149Z" fill="#A4C7FB" fill-opacity="0.2"/>
<path d="M78.0239 225.268C77.021 225.635 77.1517 225.752 78.8413 226.137C80.0001 226.376 81.0156 226.253 81.0998 225.955C81.3315 225.133 79.6419 224.747 78.0239 225.268Z" fill="#A4C7FB" fill-opacity="0.2"/>
<path d="M69.7609 225.669C68.1927 225.721 67.2316 225.94 67.645 226.214C67.9614 226.543 69.8123 226.649 71.6503 226.51C75.4232 226.178 74.0232 225.633 69.7609 225.669Z" fill="#A4C7FB" fill-opacity="0.2"/>
<path d="M23.2188 219.146C23.0776 220.25 23.1481 221.169 23.2975 221.212C23.447 221.254 23.8247 220.463 24.1153 219.401C24.4059 218.339 24.3354 217.42 23.9619 217.314C23.663 217.229 23.2853 218.021 23.2188 219.146Z" fill="#A4C7FB" fill-opacity="0.2"/>
<path d="M56.6189 230.288C56.1893 230.653 56.2228 230.824 56.8374 230.672C57.3551 230.573 57.8641 230.795 58.0403 231.329C58.1619 231.766 58.8893 232.371 59.5709 232.561C60.5553 232.834 60.5976 232.684 59.5847 231.354C58.2231 229.523 57.6172 229.355 56.6189 230.288Z" fill="#A4C7FB" fill-opacity="0.2"/>
<path d="M67.3372 234.716C67.2323 235.089 67.9839 235.616 69.0472 235.907C70.1105 236.198 70.9879 236.277 71.0298 236.128C71.0718 235.979 70.3202 235.451 69.2989 235.011C68.2985 234.497 67.4211 234.417 67.3372 234.716Z" fill="#A4C7FB" fill-opacity="0.2"/>
<path d="M91.9053 242.609C90.8447 243.203 90.8173 244.17 91.8715 244.468C92.4739 244.638 93.0734 244.239 93.2423 243.636C93.5801 242.432 92.9658 242.015 91.9053 242.609Z" fill="#A4C7FB" fill-opacity="0.2"/>
<path d="M28.1295 226.086C28.831 227.082 32.3504 228.527 32.1046 227.656C31.9816 227.22 30.9474 226.535 29.8842 226.244C28.745 225.933 28.0196 225.895 28.1295 226.086Z" fill="#A4C7FB" fill-opacity="0.2"/>
<path d="M86.9156 242.322C87.0378 242.758 87.9184 243.404 88.8495 243.58C90.4422 244.019 90.4633 243.945 89.1908 242.949C87.3201 241.467 86.6375 241.279 86.9156 242.322Z" fill="#A4C7FB" fill-opacity="0.2"/>
<path d="M42.5645 231.26C44.4352 232.742 45.1178 232.93 44.8397 231.887C44.7386 231.376 43.8369 230.805 42.9058 230.629C41.3131 230.19 41.2921 230.264 42.5645 231.26Z" fill="#A4C7FB" fill-opacity="0.2"/>
<path d="M96.6065 245.736C96.7293 246.171 97.7631 246.857 98.826 247.148C101.256 247.814 101.057 247.358 98.3609 245.895C97.0023 245.201 96.4499 245.13 96.6065 245.736Z" fill="#A4C7FB" fill-opacity="0.2"/>
<path d="M105.929 249.048C105.823 249.423 106.095 249.903 106.549 250.03C106.927 250.135 107.07 250.498 106.737 250.81C106.329 251.1 106.816 251.398 107.711 251.405C109.578 251.441 109.578 251.441 107.647 249.608C106.682 248.692 106.077 248.524 105.929 249.048Z" fill="#A4C7FB" fill-opacity="0.2"/>
<path d="M57.1238 236.301C57.0819 236.45 57.8334 236.977 58.8548 237.417C59.8552 237.932 60.7326 238.011 60.8165 237.712C60.9213 237.339 60.1698 236.812 59.1065 236.521C58.0432 236.23 57.1658 236.151 57.1238 236.301Z" fill="#A4C7FB" fill-opacity="0.2"/>
<path d="M79.2494 245.08C78.8914 246.35 80.0966 247.004 82.2035 246.779C83.8132 246.579 83.9101 246.525 82.5996 246.244C81.7231 246.164 80.6485 245.626 80.2776 245.202C79.8519 244.682 79.3757 244.631 79.2494 245.08Z" fill="#A4C7FB" fill-opacity="0.2"/>
<path d="M-40.4468 218.749C-46.885 217.494 -47.134 217.507 -43.7385 218.826C-41.6915 219.7 -42.3761 219.515 -45.2806 218.49C-52.611 216.029 -68.4403 212.078 -70.4733 212.334C-71.4899 212.462 -68.3364 213.474 -63.4265 214.638C-56.7463 216.2 -56.0063 216.48 -60.2177 215.746C-63.2674 215.244 -66.1303 214.954 -66.5176 215.172C-66.9048 215.389 -65.8606 215.751 -64.2216 216.033C-61.8566 216.349 -60.9299 216.841 -59.8579 218.578C-58.1011 221.385 -58.3984 221.868 -61.3928 221.462L-63.986 221.084L-61.4965 221.837C-60.224 222.261 -59.1659 222.868 -59.2489 223.167C-59.3526 223.542 -44.8302 227.783 -26.9539 232.608C-9.02227 237.528 9.47645 242.763 14.2066 244.281C18.9368 245.799 26.0043 248.028 29.7871 249.13C33.6459 250.252 36.6264 251.297 36.3913 251.556C36.177 251.739 38.3968 252.58 41.3635 253.381C44.4063 254.202 49.3439 255.856 52.3591 257.072C55.3742 258.288 58.7352 259.437 59.8001 259.724C60.8858 259.937 62.2136 260.456 62.76 260.845C63.8526 261.623 71.2729 264.35 74.8689 265.24C76.01 265.548 76.8398 266.093 76.7569 266.393C76.6532 266.767 78.3959 267.559 80.6019 268.155C84.4607 269.277 86.2449 269.919 93.2918 273.108C95.3388 273.983 97.289 274.911 97.6693 275.014C98.105 275.212 98.52 275.485 98.7274 275.621C98.9349 275.758 101.003 276.557 103.395 277.364C105.767 278.246 108.914 279.578 110.387 280.458C112.655 281.714 116.632 283.591 120.767 285.19C121.507 285.47 122.185 285.975 122.427 286.282C122.572 286.643 123.257 286.828 123.928 286.767C124.598 286.707 125.013 286.98 124.889 287.429C124.764 287.878 125.408 288.213 126.307 288.214C127.531 288.223 128.118 287.577 128.637 285.705C129.238 283.535 129.058 283.003 127.412 282.157C126.257 281.604 124.784 280.723 124.01 280.273C123.235 279.823 122.405 279.277 122.122 279.12C121.762 278.942 121.347 278.669 121.064 278.512C120.704 278.335 120.269 278.137 119.944 278.13C119.639 278.047 118.166 277.167 116.659 276.117C115.075 275.046 113.789 274.377 113.706 274.676C113.643 274.901 113.229 274.628 112.876 274.13C112.447 273.612 111.14 273.018 109.978 272.785C108.72 272.606 107.89 272.06 107.993 271.686C108.118 271.237 107.758 271.059 107.316 271.181C106.776 271.358 105.372 270.818 104.128 269.999C102.959 269.201 100.442 267.958 98.6021 267.221C96.8387 266.503 95.255 265.432 95.0752 264.901C94.916 264.295 94.591 264.288 94.1762 264.9C93.7821 265.437 93.3049 265.389 92.724 264.829C92.2744 264.386 90.8567 263.601 89.605 263.103C88.3326 262.679 86.3617 261.825 85.1515 261.177C83.9966 260.623 81.8182 259.633 80.4143 259.093C79.0312 258.479 76.68 257.522 75.3176 256.833C73.9345 256.218 71.8668 255.419 70.705 255.186C69.2597 254.796 68.6788 254.236 68.9069 253.413C69.1557 252.515 68.9483 252.378 67.9248 252.826C67.1919 253.111 65.304 252.843 63.4645 252.105C61.701 251.388 59.6886 250.684 59.1008 250.445C58.4922 250.28 55.5532 249.085 52.6141 247.889C45.8092 245.007 40.3253 242.963 36.5771 242.032C34.9036 241.58 33.4098 240.775 33.23 240.244C32.981 239.372 32.6006 239.269 31.4804 239.772C30.6506 240.111 29.5234 240.048 28.8249 239.618C26.1693 237.694 -30.1222 220.731 -40.4468 218.749Z" fill="#A4C7FB" fill-opacity="0.2"/>
<path d="M-45.2719 254.992C-48.3836 254.714 -48.3075 254.734 -43.9377 256.077C-39.7961 257.357 -39.326 257.725 -38.0133 260.653L-36.514 263.792L-39.9021 263.037C-41.6722 262.639 -39.0173 263.679 -33.8316 265.322C-24.525 268.32 -24.6011 268.299 -38.7134 264.645C-46.5681 262.602 -53.1922 261.133 -53.4275 261.391C-53.7595 261.703 -44.0311 264.655 -31.8618 267.945C-19.6373 271.33 -5.93311 275.276 -1.43196 276.734C3.14526 278.213 7.49429 279.629 8.33093 279.856C9.16757 280.082 10.3845 280.411 10.993 280.575C11.5806 280.815 14.3187 281.555 17.0361 282.37C19.6981 283.089 22.1457 283.992 22.4636 284.319C23.0996 284.974 33.3325 288.464 37.4051 289.404C38.6221 289.733 39.8735 290.232 40.1707 290.634C40.5647 290.982 42.5905 291.931 44.6785 292.657C46.8427 293.403 49.8572 294.62 51.4681 295.296C53.0998 295.898 55.3192 296.739 56.5569 296.994C57.6978 297.302 58.5066 297.923 58.382 298.371C58.2158 298.97 58.52 299.052 59.35 298.714C60.1038 298.354 60.8644 298.56 61.4451 299.119C61.9496 299.658 62.6895 299.938 63.0352 299.871C63.4779 299.749 65.6212 300.57 67.9096 301.751C70.1428 302.837 72.777 303.952 73.7657 304.219C74.6784 304.466 75.5841 305.032 75.6531 305.372C75.7774 305.808 76.5932 306.109 77.4922 306.111C78.3912 306.113 79.0342 306.447 78.9303 306.821C78.8264 307.195 80.1331 307.79 81.8479 308.092C83.6388 308.416 84.8695 308.99 84.724 309.513C84.6202 309.887 84.8828 310.119 85.4015 310.018C85.8441 309.896 87.4206 310.403 88.741 311.242C92.4052 313.359 92.7999 311.937 89.1566 309.746C87.4005 308.709 86.0664 307.625 86.1287 307.4C86.191 307.176 85.4928 306.746 84.6009 306.424C83.6329 306.082 80.4941 304.43 77.625 302.689C74.7352 301.023 71.4858 299.18 70.4626 298.743C69.4601 298.23 67.2893 296.92 65.6301 295.828C64.047 294.757 61.9107 293.616 60.9219 293.349C60.0092 293.102 59.1036 292.536 58.924 292.005C58.7997 291.569 58.1567 291.235 57.4859 291.295C56.7944 291.429 54.5957 290.513 52.5355 289.393C50.496 288.199 48.491 287.174 48.0555 286.976C47.6959 286.799 47.053 286.464 46.6174 286.266C46.2579 286.088 45.2899 285.746 44.5846 285.636C43.8033 285.505 43.2571 285.116 43.361 284.742C43.4441 284.443 42.2895 283.89 40.7268 283.628C39.1088 283.271 37.6084 282.785 37.2352 282.362C36.5232 281.688 33.889 280.573 29.3878 279.115C27.9635 278.65 26.5047 278.014 26.1867 277.687C25.924 277.455 24.2578 276.683 22.55 276.061C20.9183 275.459 17.883 274.317 15.8365 273.442C13.8453 272.662 11.0174 271.656 9.62757 271.361C8.16169 271.045 6.70286 270.41 6.32961 269.987C5.93559 269.639 1.91156 268.23 -2.7072 266.901C-7.32596 265.572 -18.0639 262.428 -26.5961 259.88C-35.1283 257.332 -43.5155 255.145 -45.2719 254.992Z" fill="#A4C7FB" fill-opacity="0.2"/>
</svg>
