<svg width="31" height="30" viewBox="0 0 31 30" fill="none" xmlns="http://www.w3.org/2000/svg">
<path d="M2.83398 7.5C2.83398 6.17392 3.36077 4.90215 4.29845 3.96447C5.23613 3.02678 6.5079 2.5 7.83398 2.5H22.834C24.1601 2.5 25.4318 3.02678 26.3695 3.96447C27.3072 4.90215 27.834 6.17392 27.834 7.5V22.5C27.834 23.8261 27.3072 25.0979 26.3695 26.0355C25.4318 26.9732 24.1601 27.5 22.834 27.5H7.83398C6.5079 27.5 5.23613 26.9732 4.29845 26.0355C3.36077 25.0979 2.83398 23.8261 2.83398 22.5V7.5Z" stroke="#1E272F" stroke-width="2.48333" stroke-linecap="round" stroke-linejoin="round"/>
<path d="M10.9592 13.7498C12.6851 13.7498 14.0842 12.3506 14.0842 10.6248C14.0842 8.89887 12.6851 7.49976 10.9592 7.49976C9.23334 7.49976 7.83423 8.89887 7.83423 10.6248C7.83423 12.3506 9.23334 13.7498 10.9592 13.7498Z" stroke="#1E272F" stroke-width="2.48333" stroke-linecap="round" stroke-linejoin="round"/>
<path d="M18.4917 15.7764L7.83423 27.5001H23.0005C24.2825 27.5001 25.512 26.9909 26.4185 26.0844C27.325 25.1778 27.8342 23.9484 27.8342 22.6664V22.5001C27.8342 21.9176 27.6155 21.6939 27.2217 21.2626L22.1842 15.7689C21.9494 15.5128 21.6639 15.3084 21.3457 15.1688C21.0275 15.0293 20.6838 14.9576 20.3363 14.9583C19.9889 14.959 19.6454 15.0321 19.3278 15.1729C19.0102 15.3138 18.7255 15.5193 18.4917 15.7764V15.7764Z" stroke="#1E272F" stroke-width="2.48333" stroke-linecap="round" stroke-linejoin="round"/>
</svg>
